<?xml version="1.0" encoding="iso-8859-1"?>
<!-- Uploaded to: SVG Repo, www.svgrepo.com, Generator: SVG Repo Mixer Tools -->
<svg version="1.1" id="Layer_1" xmlns="http://www.w3.org/2000/svg" xmlns:xlink="http://www.w3.org/1999/xlink" 
	 viewBox="0 0 511.997 511.997" xml:space="preserve">
<path style="fill:#F95428;" d="M447.008,132.08l-24.215,24.215l-65.741,65.752l-95.899,95.899L122.681,456.408l-30.904-30.904
	l116.105-116.116c7.391-7.38,14.069-15.43,19.958-23.999c1.653-2.41,3.252-4.873,4.776-7.369c3.922-6.375,7.413-13.021,10.46-19.871
	c8.417-18.985,20.239-36.242,34.859-50.937L400.037,85.109L447.008,132.08z"/>
<g>
	
		<rect x="156.527" y="269.188" transform="matrix(0.7071 0.7071 -0.7071 0.7071 306.9535 -11.0309)" style="fill:#E03F20;" width="20.53" height="191.645"/>
	<path style="fill:#E03F20;" d="M414.559,99.631l-180.171,180.16l-1.772-1.772c3.922-6.375,7.413-13.021,10.46-19.871
		c8.417-18.985,20.239-36.242,34.859-50.937L400.037,85.109L414.559,99.631z"/>
</g>
<path style="fill:#B3B3B3;" d="M503.35,191.749c-43.864-8.123-85.108-31.509-115.071-69.142c-1.664-2.09-3.279-4.204-4.842-6.342
	c-4.238-5.793-7.808-12.031-11.113-18.403c-1.704-3.284-3.667-6.48-5.894-9.553c-0.719-1.023-1.492-2.035-2.285-3.031
	c-23.345-29.322-63.656-37.143-95.748-20.655l53.643,67.376l-33.883,26.977c19.521,10.525,37.489,24.602,52.879,42.121
	c2.077,2.367,4.094,4.781,6.068,7.261c21.66,27.205,34.756,58.483,39.625,90.569c23.005-4.691,45.286-14.74,64.913-30.367
	C477.344,248.098,494.751,221.028,503.35,191.749z"/>
<path style="fill:#E6E6E6;" d="M379.889,269.624c3.069,9.628,5.338,19.428,6.84,29.305c23.005-4.69,45.286-14.739,64.909-30.363
	c25.706-20.466,43.114-47.533,51.715-76.816c-10.308-1.913-20.476-4.657-30.385-8.245c-9.66,22.951-25.058,43.892-45.902,60.489
	C412.532,255.566,396.54,264.08,379.889,269.624z"/>
<path style="fill:#F95428;" d="M199.524,173.763l33.133,33.133c14.777,14.777,26.702,32.141,35.18,51.249
	c4.247,9.547,9.345,18.674,15.234,27.244s12.568,16.613,19.952,23.998l116.114,116.114l-30.909,30.909L249.759,317.942
	l-95.898-95.898l-65.747-65.747L63.9,132.082l46.973-46.973l22.417,22.417"/>
<polygon style="fill:#E03F20;" points="168.379,207.527 102.631,141.779 78.417,117.565 63.9,132.082 88.114,156.296 
	153.862,222.044 249.759,317.942 388.228,456.41 402.745,441.893 264.276,303.424 "/>
<path style="fill:#B3B3B3;" d="M7.561,191.749c43.864-8.123,85.107-31.509,115.071-69.142c1.664-2.09,3.279-4.204,4.842-6.342
	c4.238-5.793,7.808-12.031,11.113-18.403c1.704-3.284,3.667-6.48,5.894-9.553c0.719-1.023,1.492-2.035,2.285-3.031
	c23.345-29.322,63.656-37.143,95.748-20.655l-53.643,67.376l33.883,26.977c-19.521,10.525-37.489,24.602-52.879,42.121
	c-2.077,2.367-4.094,4.781-6.068,7.261c-21.66,27.205-34.756,58.483-39.625,90.569c-23.005-4.691-45.286-14.74-64.913-30.367
	C33.567,248.098,16.16,221.028,7.561,191.749z"/>
<path style="fill:#E6E6E6;" d="M131.022,269.624c-3.069,9.628-5.338,19.428-6.84,29.305c-23.005-4.69-45.286-14.739-64.909-30.363
	c-25.706-20.466-43.114-47.533-51.715-76.816c10.308-1.913,20.476-4.657,30.385-8.245c9.66,22.951,25.058,43.892,45.902,60.489
	C98.379,255.566,114.371,264.08,131.022,269.624z"/>
<path d="M510.797,187.224c-1.202-1.955-3.175-3.309-5.43-3.726c-25.076-4.643-48.703-14.44-69.509-28.543l17.425-17.425
	c1.52-1.519,2.374-3.581,2.374-5.73s-0.854-4.211-2.374-5.73l-46.973-46.973c-3.164-3.165-8.295-3.165-11.46,0l-14.778,14.778
	c-0.004-0.009-0.009-0.016-0.013-0.025c-1.896-3.656-4.08-7.198-6.493-10.531c-0.73-1.037-1.562-2.141-2.54-3.369
	c-25.265-31.734-69.755-41.33-105.79-22.815c-2.16,1.11-3.708,3.129-4.22,5.504c-0.51,2.374,0.07,4.852,1.583,6.752l48.595,61.035
	l-27.542,21.929c-2.13,1.696-3.267,4.348-3.024,7.06c0.242,2.712,1.829,5.122,4.226,6.413c4.993,2.692,9.838,5.609,14.534,8.734
	l-26.317,26.317c-1.714,1.714-3.415,3.486-5.056,5.268c-3.033,3.291-2.823,8.419,0.469,11.452c1.557,1.435,3.526,2.144,5.489,2.144
	c2.185,0,4.364-0.878,5.962-2.613c1.492-1.62,3.04-3.231,4.597-4.789l28.085-28.085c8.201,6.597,15.845,13.909,22.869,21.903
	c1.986,2.265,3.945,4.609,5.822,6.966c2,2.512,3.912,5.085,5.772,7.689l-57.956,57.956c-5.092-7.625-9.579-15.752-13.335-24.195
	c-8.909-20.081-21.31-38.147-36.857-53.694l-26.322-26.322c4.695-3.125,9.539-6.042,14.531-8.735
	c2.397-1.292,3.984-3.702,4.225-6.414c0.242-2.712-0.895-5.364-3.024-7.059l-27.536-21.923l48.591-61.044
	c1.513-1.9,2.094-4.378,1.582-6.752c-0.511-2.374-2.06-4.394-4.218-5.503c-36.03-18.512-80.522-8.916-105.8,22.831
	c-1.006,1.267-1.81,2.334-2.526,3.353c-2.402,3.313-4.588,6.854-6.5,10.531c-0.004,0.01-0.01,0.018-0.014,0.027l-14.775-14.775
	c-3.165-3.165-8.296-3.165-11.46,0l-46.973,46.973c-1.52,1.519-2.374,3.581-2.374,5.73s0.854,4.211,2.374,5.73l17.439,17.439
	c-12.52,8.494-26.08,15.448-40.422,20.632c-9.387,3.398-19.179,6.055-29.105,7.897c-2.255,0.418-4.227,1.772-5.427,3.727
	c-1.2,1.955-1.516,4.325-0.87,6.525c9.412,32.045,28.238,60.011,54.443,80.873c20.2,16.084,43.192,26.839,68.338,31.965
	c0.537,0.109,1.079,0.163,1.619,0.163c1.646,0,3.268-0.501,4.638-1.459c1.821-1.271,3.04-3.232,3.373-5.427
	c1.45-9.536,3.653-18.976,6.549-28.06c6.791-21.287,17.357-41.031,31.395-58.672c1.926-2.41,3.889-4.758,5.83-6.972
	c7.025-7.996,14.67-15.309,22.871-21.907l28.089,28.089c14.133,14.133,25.404,30.553,33.505,48.813
	c4.448,9.999,9.817,19.601,15.96,28.541c6.175,8.987,13.208,17.444,20.902,25.138l110.378,110.384l-19.449,19.449L176.865,232.763
	c-3.165-3.165-8.296-3.165-11.46,0c-3.165,3.165-3.165,8.295,0,11.46l47.686,47.686c-3.282,3.978-6.749,7.822-10.386,11.46
	l-33.548,33.548c-3.165,3.165-3.165,8.296,0,11.46c1.582,1.583,3.657,2.374,5.73,2.374c2.074,0,4.148-0.791,5.73-2.374
	l33.548-33.548c3.636-3.636,7.111-7.468,10.428-11.418l158.447,158.448c1.582,1.583,3.657,2.374,5.73,2.374
	c2.074,0,4.148-0.791,5.73-2.374l30.909-30.909c1.52-1.519,2.374-3.581,2.374-5.73s-0.854-4.211-2.374-5.73L309.296,303.375
	c-3.639-3.639-7.111-7.471-10.4-11.456l57.201-57.201c11.76,20.047,19.676,42.172,23.162,65.144
	c0.333,2.196,1.553,4.158,3.373,5.429c1.371,0.957,2.993,1.46,4.639,1.46c0.54,0,1.082-0.054,1.62-0.163
	c25.146-5.127,48.139-15.882,68.342-31.967c26.202-20.861,45.026-48.826,54.436-80.868
	C512.315,191.551,511.998,189.179,510.797,187.224z M75.902,131.8l35.511-35.511l12.058,12.058c-0.662,0.98-1.324,1.933-1.989,2.844
	c-1.488,2.033-3.053,4.077-4.655,6.086c-8.211,10.318-17.46,19.653-27.548,27.902L75.902,131.8z M164.327,195.471
	c-2.108,2.405-4.231,4.944-6.32,7.557c-13.508,16.975-24.053,35.738-31.425,55.871c-13.329-5.274-25.797-12.49-37.147-21.528
	c-3.5-2.788-8.599-2.21-11.388,1.291c-2.788,3.501-2.21,8.6,1.291,11.388c12.896,10.27,27.097,18.427,42.299,24.321
	c-1.31,4.754-2.465,9.573-3.423,14.437c-19.46-5.126-37.373-14.142-53.352-26.866c-21.271-16.934-37.137-39.066-46.257-64.398
	c5.242-1.222,10.423-2.669,15.521-4.298c5.695,11.935,12.812,23.123,21.256,33.321c1.602,1.936,3.916,2.936,6.247,2.936
	c1.821,0,3.651-0.611,5.164-1.862c3.447-2.855,3.928-7.963,1.074-11.411c-7.265-8.774-13.433-18.367-18.44-28.58
	c31.287-12.902,58.845-33.599,80.074-60.275c1.734-2.174,3.436-4.398,5.059-6.614c3.918-5.358,7.656-11.54,11.757-19.449
	c1.548-2.979,3.321-5.848,5.267-8.527c0.025-0.035,0.05-0.069,0.075-0.105c0.54-0.769,1.175-1.61,1.988-2.635
	c18.354-23.051,49.219-31.69,76.44-22.431l-47.012,59.059c-2.788,3.501-2.209,8.599,1.292,11.387l24.585,19.573
	C192.329,167.951,177.355,180.64,164.327,195.471z M400.581,96.288l35.511,35.511l-13.37,13.37
	c-10.084-8.235-19.339-17.564-27.562-27.892c-1.597-2.004-3.157-4.05-4.642-6.079c-0.668-0.913-1.332-1.869-1.997-2.853
	L400.581,96.288z M447.137,261.939c-15.982,12.725-33.898,21.742-53.358,26.869c-0.96-4.858-2.122-9.669-3.442-14.435
	c15.212-5.894,29.419-14.054,42.321-24.328c3.291-2.621,6.514-5.396,9.577-8.249c3.276-3.049,3.46-8.178,0.41-11.454
	c-3.05-3.276-8.178-3.459-11.454-0.41c-2.76,2.57-5.664,5.07-8.63,7.433c-11.359,9.045-23.839,16.266-37.183,21.54
	c-7.363-20.074-17.937-38.98-31.39-55.876c-2.036-2.557-4.161-5.1-6.321-7.564c-13.026-14.827-28-27.516-44.627-37.83l24.59-19.579
	c1.681-1.339,2.763-3.29,3.005-5.427c0.242-2.136-0.374-4.28-1.712-5.961l-47.015-59.051c27.223-9.261,58.088-0.623,76.439,22.427
	c0.79,0.992,1.441,1.856,1.994,2.641c0.023,0.033,0.046,0.066,0.07,0.098c1.956,2.697,3.726,5.567,5.262,8.528
	c4.102,7.907,7.84,14.09,11.766,19.455c1.613,2.205,3.31,4.428,5.043,6.605c21.303,26.757,48.937,47.405,80.095,60.277
	c-3.219,6.565-6.928,12.893-11.091,18.884c-2.554,3.675-1.646,8.725,2.03,11.28c1.41,0.98,3.021,1.45,4.617,1.45
	c2.565,0,5.087-1.215,6.663-3.48c4.952-7.126,9.328-14.681,13.075-22.532c5.099,1.634,10.274,3.072,15.517,4.296
	C484.269,222.877,468.404,245.005,447.137,261.939z"/>
<path d="M231.401,336.491L123.223,444.67l-19.445-19.452l60.091-60.091c3.165-3.165,3.165-8.295,0-11.46
	c-3.165-3.165-8.296-3.165-11.46,0l-65.82,65.82c-3.165,3.164-3.165,8.295-0.001,11.459l30.904,30.915
	c1.519,1.52,3.581,2.375,5.731,2.375l0,0c2.149,0,4.211-0.854,5.73-2.374l113.91-113.91c3.165-3.165,3.165-8.295,0-11.46
	C239.698,333.327,234.566,333.327,231.401,336.491z"/>
</svg>